HIERARCHY
ROOT Hips
{
	OFFSET	0	0	0
	CHANNELS 6  Xposition Yposition Zposition Xrotation Yrotation Zrotation
	JOINT Spine
	{
		OFFSET	0	7.06441	1.42252
		CHANNELS 3  Xrotation Yrotation Zrotation
		JOINT Spine1
		{
			OFFSET	0	12.1312	-2.16628
			CHANNELS 3  Xrotation Yrotation Zrotation
			JOINT Spine2
			{
				OFFSET	0	9.19586	0.985658
				CHANNELS 3  Xrotation Yrotation Zrotation
				JOINT Spine3
				{
					OFFSET	0	11.0047	3.27108
					CHANNELS 3  Xrotation Yrotation Zrotation
					JOINT Spine4
					{
						OFFSET	0	16.2904	-1.66804
						CHANNELS 3  Xrotation Yrotation Zrotation
						JOINT Neck
						{
							OFFSET	0	7.77695	-5.4482
							CHANNELS 3  Xrotation Yrotation Zrotation
							JOINT Head
							{
								OFFSET	0	9.33667	-2.7945
								CHANNELS 3  Xrotation Yrotation Zrotation
								End Site
								{
									OFFSET	0	19.4749	-0.942332
								}
							}
						}
					}
					JOINT LeftShoulder
					{
						OFFSET	-4.67917	19.7998	-9.33667
						CHANNELS 3  Xrotation Yrotation Zrotation
						JOINT LeftArm
						{
							OFFSET	-10.2118	-2.7945	3.58522
							CHANNELS 3  Xrotation Yrotation Zrotation
							JOINT LeftForeArm
							{
								OFFSET	-34.1503	-1.55868	2.43761
								CHANNELS 3  Xrotation Yrotation Zrotation
								JOINT LeftHand
								{
									OFFSET	-28.0847	-1.94081	2.00465
									CHANNELS 3  Xrotation Yrotation Zrotation
									End Site
									{
										OFFSET	-10.2495	-0.708301	0.731552
									}
								}
							}
						}
					}
					JOINT RightShoulder
					{
						OFFSET	4.67917	19.7998	-9.33667
						CHANNELS 3  Xrotation Yrotation Zrotation
						JOINT RightArm
						{
							OFFSET	10.2118	-2.7945	3.58522
							CHANNELS 3  Xrotation Yrotation Zrotation
							JOINT RightForeArm
							{
								OFFSET	34.1503	-1.55868	2.43761
								CHANNELS 3  Xrotation Yrotation Zrotation
								JOINT RightHand
								{
									OFFSET	28.0847	-1.94081	2.00465
									CHANNELS 3  Xrotation Yrotation Zrotation
									End Site
									{
										OFFSET	10.2495	-0.708301	0.731552
									}
								}
							}
						}
					}
				}
			}
		}
	}
	JOINT LeftUpLeg
	{
		OFFSET	-9.64713	-3.53221	-0.711262
		CHANNELS 3  Xrotation Yrotation Zrotation
		JOINT LeftLeg
		{
			OFFSET	-2.16918	-42.5043	-0.664435
			CHANNELS 3  Xrotation Yrotation Zrotation
			JOINT LeftFoot
			{
				OFFSET	-2.12038	-39.0853	3.36133
				CHANNELS 3  Xrotation Yrotation Zrotation
				JOINT LeftToeBase
				{
					OFFSET	0	-4.88516	-12.975
					CHANNELS 3  Xrotation Yrotation Zrotation
					End Site
					{
						OFFSET	0	-1.95406	-7.81626
					}
				}
			}
		}
	}
	JOINT RightUpLeg
	{
		OFFSET	9.64713	-3.53221	-0.711262
		CHANNELS 3  Xrotation Yrotation Zrotation
		JOINT RightLeg
		{
			OFFSET	2.16918	-42.5043	-0.664435
			CHANNELS 3  Xrotation Yrotation Zrotation
			JOINT RightFoot
			{
				OFFSET	2.12038	-39.0853	3.36133
				CHANNELS 3  Xrotation Yrotation Zrotation
				JOINT RightToeBase
				{
					OFFSET	0	-4.88516	-12.975
					CHANNELS 3  Xrotation Yrotation Zrotation
					End Site
					{
						OFFSET	0	-1.95406	-7.81626
					}
				}
			}
		}
	}
}
MOTION
Frames: 20
Frame Time: 0.020408
 195.118 91.7881 -8.96139 176.565 6.74492 -178.488 180 179.94 -179.671 177.868 179.879 -179.452 178.404 179.638 -179.452 0.194672 0.0603841 0.328918 175.52 -179.991 -179.891 169.736 -167.779 -174.852 176.39 -153.519 178.488 172.583 -178.331 165.252 175.671 -165.468 -100.643 122.988 -107.303 122.097 -0 -36.1534 -14.1647 176.426 173.065 -172.701 0.622358 31.3596 -82.5868 8.78877 25.9579 -2.11205 -0 -6.74348 -16.7994 11.0875 4.87812 -10.1435 170.074 179.663 -179.59 175.948 179.986 -172.195 177.445 180 -180 165.148 154.559 175.807 168.677 -168.908 -178.961 10.4075 1.21217 2.84495 18.2533 0 0
 196.325 91.8735 -7.67141 176.648 8.68531 -178.797 179.999 179.916 -179.551 177.961 179.832 -179.252 178.499 179.497 -179.252 0.268924 0.0837914 0.448684 175.524 -179.988 -179.851 169.584 -168.549 -173.85 176.386 -154.229 178.837 172.64 -178.773 165.423 175.535 -166.787 -100.911 118.7 -106.891 117.573 -0 -36.5021 -14.0256 175.854 172.466 -171.491 0.762605 32.2528 -83.7753 7.50905 22.8472 -1.31998 -0 -8.88867 -15.1571 10.9933 5.70766 -8.98559 167.638 178.394 179.961 178.359 179.901 -172.828 177.494 180 -180 164.365 153.357 177.544 168.186 -169.48 -178.838 10.7362 1.51958 2.13982 18.1336 0 0
 197.565 91.9699 -6.25201 176.643 9.73462 -179.072 179.999 179.851 -179.47 178.071 179.703 -179.117 178.609 179.108 -179.117 0.358818 0.148758 0.529632 175.524 -179.986 -179.824 169.402 -169.279 -172.971 176.372 -154.964 179.154 172.793 -178.992 165.762 175.272 -167.694 -101.18 113.971 -106.58 112.722 -0 -36.8249 -13.7948 175.352 171.558 -170.397 0.985048 32.999 -84.7117 6.68298 20.8164 -0.675493 -0 -10.3952 -13.9022 10.3782 6.45568 -7.87194 166.301 177.468 179.868 0.339014 -0.0173004 6.67848 177.498 180 -180 163.716 152.569 179.181 167.156 -169.439 -179.339 11.1868 1.40903 1.59732 18.1753 0 0
 198.161 92.2622 -4.66012 176.067 10.6116 -177.988 179.999 179.885 -179.586 178.072 179.769 -179.31 178.649 179.307 -179.31 0.463921 0.115471 0.414052 175.279 -179.989 -179.862 168.642 -169.75 -172.538 176.161 -155.614 179.287 172.917 -179.152 166.035 175.359 -168.545 -101.319 110.169 -106.411 108.571 -0 -37.1164 -13.6985 174.959 170.809 -169.528 0.728755 33.8309 -85.8168 6.1275 19.0119 -0.480381 -0 -11.7711 -13.1137 9.00357 7.10178 -8.39961 165.572 176.94 179.711 1.95314 -0.0599548 6.99343 177.459 180 -180 164.482 152.183 178.198 164.688 -168.476 -179.693 10.9595 1.08107 1.05393 18.4179 0 0
 198.873 92.5122 -2.90284 175.535 10.9784 -177.595 179.999 179.864 -179.591 178.065 179.727 -179.318 178.62 179.181 -179.318 0.394455 0.13648 0.409429 175.429 -179.989 -179.864 169.035 -170.28 -172.023 176.321 -156.186 179.532 173.044 -178.764 166.246 174.695 -168.552 -101.648 105.823 -106.378 104.339 -0 -37.3604 -13.3464 174.504 170.034 -168.52 179.994 145.36 93.4548 5.90094 18.4697 -0.329041 -0 -12.7963 -12.8354 7.55213 8.1243 -7.95401 165.106 176.546 179.403 3.423 -0.227784 6.86353 177.468 180 -180 164.478 152.683 178.08 162.629 -167.979 -179.689 10.5024 0.950473 0.556904 18.5365 0 0
 199.625 92.8212 -1.34842 175.249 10.9253 -177.208 179.999 179.88 -179.589 178.121 179.761 -179.315 178.669 179.282 -179.315 0.410406 0.119701 0.411068 175.497 -179.989 -179.863 169.131 -170.739 -171.498 176.38 -156.648 179.741 173.126 -178.188 166.347 173.313 -168.087 -101.786 103.667 -106.675 102.002 -0 -37.523 -12.8312 174.062 169.489 -167.542 179.474 144.634 92.5986 5.95658 18.3938 -0.197963 -0 -13.422 -13.1166 6.3837 8.29548 -7.52146 164.707 176.069 179.25 4.44969 -0.235341 6.69076 177.487 180 -180 165.842 152.997 177.706 159.233 -167.042 179.658 9.05497 0.806201 0.183445 18.6537 0 0
 200.588 93.1506 0.260812 175.21 10.7109 -177.122 179.999 179.898 -179.542 178.145 179.796 -179.237 178.668 179.387 -179.237 0.349448 0.102156 0.457795 175.684 -179.989 -179.848 169.633 -170.984 -171.525 176.557 -157.041 179.823 173.311 -177.5 166.651 172.302 -167.993 -101.842 102.954 -107.212 101.366 -0 -37.5786 -12.1733 173.58 169.729 -166.527 178.982 144.087 91.8052 6.26114 18.9663 -0.251691 -0 -13.7515 -13.8344 5.23481 8.83961 -6.63289 164.869 175.879 179.011 5.27385 -0.516133 5.50429 177.592 180 -180 168.157 153.244 176.998 154.768 -165.919 179.54 4.96176 0.611057 -0.439755 18.8043 0 0
 201.088 93.7263 2.22394 174.393 9.90603 -175.931 180 179.979 -179.711 178.053 179.958 -179.519 178.621 179.875 -179.519 0.407624 0.0208717 0.288597 175.373 -179.992 -179.904 168.835 -170.912 -171.867 176.303 -157.278 179.691 173.701 -175.993 167.301 170.987 -167.614 -102.461 105.312 -107.993 104.169 -0 -37.5246 -11.5527 173.222 170.159 -165.79 178.021 143.487 91.4702 6.73594 19.8162 -0.6088 -0 -13.9482 -14.9987 2.95409 9.28571 -6.86398 165.74 175.785 178.453 5.75511 -0.399144 6.67541 177.505 180 -180 173.926 154.535 172.983 146.763 -163.988 179.971 161.32 179.967 -179.123 18.7235 0 0
 201.566 93.8557 3.56526 174.36 10.0174 -175.574 180 179.979 -179.694 178.129 179.957 -179.49 178.688 179.871 -179.49 0.432378 0.0214413 0.305963 175.457 -179.992 -179.898 169.01 -170.994 -172.191 176.367 -157.634 179.659 173.843 -174.855 167.491 170.354 -167.778 -102.942 105.277 -108.405 104.048 -0 -37.5206 -11.1846 172.884 170.4 -165.081 177.605 142.821 91.062 7.22302 20.6961 -1.00335 -0 -14.2286 -16.1823 1.956 9.67691 -6.63194 165.967 175.586 178.241 6.52224 -0.538505 6.5257 177.518 180 -180 177.183 155.612 171.804 142.057 -162.84 179.741 157.146 179.968 -179.529 18.8119 0 0
 202.292 93.9729 4.52778 174.574 10.8009 -175.322 180 179.997 -179.646 178.203 179.993 -179.409 178.767 179.98 -179.409 0.495174 0.00339192 0.354375 175.45 -179.991 -179.882 168.926 -171.002 -172.487 176.344 -157.87 179.6 174.058 -173.63 167.835 169.939 -168.006 -103.301 104.516 -108.593 103.253 -0 -37.3727 -11.0947 172.829 170.734 -164.991 177.5 142.145 91.0162 7.72678 21.4273 -1.30116 -0 -14.8062 -17.3806 1.17497 10.2415 -6.10604 166.472 175.318 178.104 7.08189 -0.45444 6.41839 177.514 180 -180 179.868 157.552 171.203 138.259 -161.822 179.5 156.573 -179.977 179.961 18.8909 0 0
 202.854 94.07 5.75691 174.639 11.3407 -175.122 180 179.985 -179.609 178.384 179.97 -179.348 178.954 179.91 -179.348 0.635075 0.0149181 0.391264 175.466 -179.99 -179.87 168.824 -170.853 -173.345 176.311 -158.211 179.398 174.092 -172.688 167.831 168.731 -168.585 -103.408 103.055 -108.648 101.842 -0 -37.2532 -11.1352 172.839 171.18 -165.049 177.403 141.446 91.0939 8.12581 21.7574 -1.47902 -0 -15.4365 -18.3787 179.864 169.083 174.161 167.512 174.966 178.291 7.5651 -0.582983 6.1692 177.513 180 -180 2.44491 20.2464 -9.32845 136.363 -161.171 179.592 156.811 -179.959 179.334 18.9602 0 0
 203.509 94.1717 6.59324 175.058 11.8405 -174.89 180 179.977 -179.6 178.539 179.954 -179.334 179.113 179.863 -179.334 0.75136 0.0228998 0.399523 175.487 -179.99 -179.867 168.752 -170.784 -173.953 176.292 -158.517 179.263 174.163 -171.903 167.922 167.847 -169.484 -103.359 101.556 -108.63 100.269 -0 -37.0831 -11.3246 172.989 171.774 -165.421 176.913 140.599 91.165 8.5387 22.037 -1.71239 -0 -16.1014 -19.2204 178.959 168.547 174.527 169.055 174.673 178.336 7.5942 -0.75494 5.71853 177.514 180 -180 4.69672 18.4189 -9.74077 135.484 -161.038 179.794 156.974 -179.993 178.696 19.0172 0 0
 204.027 94.3002 7.62769 175.35 12.4697 -174.636 180 179.99 -179.58 178.714 179.979 -179.3 179.29 179.937 -179.3 0.874351 0.0104291 0.420088 175.53 -179.989 -179.86 168.719 -170.728 -174.462 176.284 -158.771 179.153 174.343 -170.985 168.238 167.297 -170.462 -103.192 100.434 -108.612 99.0877 -0 -36.9151 -11.5941 173.201 172.498 -165.935 176.447 139.737 91.5698 9.05934 22.5907 -1.99228 -0 -16.6035 -20.105 177.873 168.033 174.822 170.425 174.352 178.375 7.6557 -0.794941 5.55672 177.517 180 -180 7.22682 16.7723 -10.6891 134.635 -161.058 179.952 157.26 -179.958 177.989 19.0706 0 0
 204.671 94.4306 8.5833 175.558 12.9644 -174.447 180 179.999 -179.566 178.978 179.997 -179.277 179.508 179.992 -179.277 0.906944 0.00135668 0.433587 175.954 -179.99 -179.856 169.699 -170.688 -174.724 176.594 -158.824 179.158 174.524 -170.197 168.572 167.36 -171.748 -102.809 100.09 -108.592 98.6972 -0 -36.6649 -11.9623 173.407 173.055 -166.421 175.547 138.707 92.1153 9.71041 23.1424 -2.40156 -0 -16.9447 -21.147 176.837 167.502 175.413 171.658 174.227 178.229 7.69141 -0.939506 4.92802 177.544 180 -180 9.2865 15.2445 -11.4679 133.976 -161.488 179.851 157.491 -179.974 177.232 19.1166 0 0
 204.993 94.6043 9.49039 176.12 13.5558 -174.104 2.68907e-05 -0.00393576 0.391462 179.212 -179.992 -179.348 179.776 -179.976 -179.348 1.16742 -0.00393576 0.391462 175.787 -179.99 -179.87 168.985 -170.707 -174.632 176.369 -158.835 179.134 174.834 -169.039 169.163 166.563 -172.967 -102.758 101.587 -108.748 100.369 -0 -36.2594 -12.2562 173.86 173.602 -167.419 174.846 137.506 93.1362 10.7688 24.1338 -2.95703 -0 -16.9393 -22.317 176.16 166.971 175.593 173.081 174.035 178.004 7.51872 -0.932842 4.76874 177.559 180 -180 12.0302 14.3785 -12.8021 134.086 -161.962 179.917 159.163 -179.949 176.329 19.1593 0 0
 205.33 94.6965 10.4583 176.558 14.3069 -173.91 5.45298e-05 -0.00746514 0.418514 179.459 -179.985 -179.302 0.0412015 -0.0447887 0.697524 1.38546 -0.00746514 0.418514 175.745 -179.99 -179.861 168.643 -170.471 -175.046 176.251 -158.705 178.981 175.162 -167.754 169.797 165.939 -174.544 -103.019 103.595 -109.166 102.492 -0 -35.7204 -12.2356 174.539 174.061 -168.87 173.134 135.755 94.2439 11.7477 24.4585 -3.5084 -0 -17.1055 -23.3439 175.358 166.191 175.966 174.336 173.708 177.957 7.48573 -0.772692 5.34383 177.526 180 -180 14.41 13.5512 -13.7201 134.66 -163.058 179.978 160.43 -179.982 175.179 19.1961 0 0
 205.914 94.732 11.1713 177.049 14.8084 -173.87 2.34112e-05 -0.00331561 0.404553 179.702 -179.993 -179.326 0.297854 -0.0198928 0.674255 1.58768 -0.00331561 0.404553 175.733 -179.99 -179.866 168.379 -170.395 -175.167 176.164 -158.659 178.924 175.589 -166.332 170.648 166.003 -176.26 -103.083 103.839 -109.369 102.725 -0 -35.1649 -12.402 174.973 174.422 -169.793 171.679 134 95.5416 12.9173 25.2085 -4.06524 -0 -17.1723 -24.4473 174.772 165.845 176.432 175.541 173.324 178.143 7.43186 -0.997142 4.73826 177.54 180 -180 16.8036 13.1678 -14.6402 135.261 -164.43 179.78 161.118 179.992 173.969 19.2273 0 0
 206.399 94.7082 12.2084 177.589 15.4026 -173.811 5.78528e-05 -0.00852034 0.38903 179.966 -179.983 -179.352 0.572459 -0.0511199 0.648384 1.79467 -0.00852034 0.389031 175.749 -179.99 -179.871 168.18 -170.244 -175.489 176.096 -158.606 178.816 175.815 -165.13 171.089 165.797 -177.654 -103.031 102.581 -109.446 101.486 -0 -34.8376 -12.5228 175.346 174.706 -170.579 170.211 132.363 96.8144 13.9324 25.6966 -4.61679 -0 -17.2609 -25.3006 174.192 165.312 176.862 176.539 173.02 178.072 7.67306 -1.01016 4.84225 177.526 180 -180 18.5022 12.9259 -15.7105 136.27 -165.58 179.901 161.576 -179.986 172.873 19.2546 0 0
 206.873 94.6348 13.1419 177.871 16.1309 -173.745 4.44572e-05 -0.00648945 0.392509 0.231738 -0.0129784 0.654182 0.853996 -0.0389351 0.654183 2.02032 -0.00648945 0.392509 175.723 -179.99 -179.87 167.862 -170.065 -175.73 175.987 -158.443 178.709 175.907 -164.103 171.253 164.428 -178.691 -102.764 100.82 -109.561 99.5743 -0 -34.413 -12.4856 175.628 174.856 -171.164 169.154 130.525 97.289 15.2563 26.3528 -5.4414 -0 -17.3176 -26.4697 173.665 164.762 177.611 177.14 172.858 177.68 8.03174 -1.18397 4.50539 177.535 180 -180 20.0851 13.0193 -16.4589 138.069 -166.209 179.904 162.401 -179.962 171.951 19.278 0 0
 207.348 94.5432 13.7688 178.698 16.2314 -174.087 5.48761e-05 -0.00770988 0.407803 0.508 -0.0154191 0.679672 1.13634 -0.0462572 0.679672 2.22253 -0.00770988 0.407803 175.773 -179.99 -179.864 167.754 -169.849 -175.964 175.941 -158.196 178.608 175.988 -163.46 171.41 163.341 -179.933 -102.331 98.5624 -109.556 97.1135 -0 -34.0363 -12.6033 175.864 174.893 -171.649 168.148 128.976 97.9575 16.4581 26.9271 -6.02195 -0 -17.4219 -27.5333 173.605 164.626 178.283 177.984 172.745 177.676 8.11065 -1.26612 4.20509 177.533 180 -180 21.6089 12.7775 -17.0128 140.092 -166.563 179.966 163.07 -179.948 171.178 19.2982 0 0
